<svg width="43.07" height="43.07" xmlns="http://www.w3.org/2000/svg" data-name="Layer 1">

 <title>іконки 3 копія</title>
 <g>
  <title>Layer 1</title>
  <circle id="svg_1" fill="#f7d300" r="16" cy="21.54" cx="21.54" class="cls-1"/>
  <path id="svg_2" fill="#fff" d="m21.54,6.54a15,15 0 1 1 -15,15a15,15 0 0 1 15,-15m0,-2a17,17 0 1 0 17,17a17,17 0 0 0 -17,-17z" class="cls-2"/>
  <path id="svg_3" fill="#fff" d="m29.91,14.83l0,0a0.09,0.09 0 0 0 0,-0.05l0,0a0.43,0.43 0 0 0 0,-0.05l0,0a0.43,0.43 0 0 1 0,-0.05l0,0s0,0 0,-0.05l0,0l0,0l0,0l0,0l0,0l0,0l0,0l0,0l0,0l0,0l0,0l0,0l0,0l0,0l0,0l0,0l-0.17,0a23.84,23.84 0 0 1 -7.37,-2.29l0,0l-0.05,0l0,0l0,0l-0.43,0l0,0l0,0l0,0l0,0a24,24 0 0 1 -7.38,2.29l-0.21,0l0,0l0,0l0,0l0,0l0,0l0,0l0,0l0,0l0,0l0,0l0,0l0,0l0,0l0,0l0,0l0,0l0,0l0,0s0,0 0,0l0,0a0.06,0.06 0 0 0 0,0l0,5.49a11.83,11.83 0 0 0 7,11.38l0.24,0l0.15,0l0.08,0a11.83,11.83 0 0 0 8.14,-11.25l0,-5.42z" class="cls-2"/>
  <path id="svg_4" fill="#f7d300" d="m26,23.19a6.21,6.21 0 0 0 -0.55,-2a8,8 0 0 0 -1.06,-1.69a3.2,3.2 0 0 0 -0.31,-0.35l-0.17,-0.15a0.93,0.93 0 0 0 -0.1,-0.1l0,-0.05l-0.14,-0.15l0,0l-0.07,-0.07l-0.09,-0.1l0,0a7.91,7.91 0 0 1 -0.57,-0.68a4.12,4.12 0 0 1 -0.43,-0.67a3,3 0 0 1 -0.29,-0.81a5,5 0 0 1 -0.1,-0.92a7.14,7.14 0 0 1 0,-0.83c0,-0.16 0,-0.3 0,-0.43a0.29,0.29 0 0 0 -0.1,-0.26a0.29,0.29 0 0 0 -0.27,-0.06a2.39,2.39 0 0 0 -0.43,0.14a4,4 0 0 0 -0.89,0.52a4.17,4.17 0 0 0 -0.95,1a4.46,4.46 0 0 0 -0.66,1.64a5.17,5.17 0 0 0 0,2.07a6.28,6.28 0 0 0 0.8,1.95a6.59,6.59 0 0 0 0.58,0.81l0.22,0.26l0.06,0.07l0.11,0.13l0.08,0.09l0,0c0.3,0.35 0.51,0.61 0.69,0.85a8.29,8.29 0 0 1 0.51,0.75a4.24,4.24 0 0 1 0.37,0.74a3.45,3.45 0 0 1 0.2,0.87a5.75,5.75 0 0 1 0,0.93c0,0.31 -0.08,0.61 -0.12,0.82s-0.06,0.28 -0.08,0.39a0.29,0.29 0 0 0 0.29,0.37l0.06,0a2.62,2.62 0 0 0 0.4,-0.11a4.26,4.26 0 0 0 0.92,-0.43a4.22,4.22 0 0 0 1,-0.92a4.59,4.59 0 0 0 0.81,-1.55a5.05,5.05 0 0 0 0.28,-2.07z" class="cls-1"/>
  <path id="svg_5" fill="#f7d300" d="m20.13,25a3.71,3.71 0 0 0 -0.49,-0.77l-0.13,-0.16l-0.07,-0.07s0,0 -0.05,-0.05l0,0l-0.06,-0.06l0,0l0,0l0,-0.05l0,0l-0.33,-0.37a2.41,2.41 0 0 1 -0.2,-0.31a1.78,1.78 0 0 1 -0.13,-0.37a2.48,2.48 0 0 1 0,-0.41a1.67,1.67 0 0 1 0,-0.33a0.31,0.31 0 0 0 -0.13,-0.27a0.32,0.32 0 0 0 -0.3,0a2.14,2.14 0 0 0 -0.32,0.2a1.88,1.88 0 0 0 -0.43,0.46a2.06,2.06 0 0 0 -0.31,0.75a2.54,2.54 0 0 0 0,0.95a2.85,2.85 0 0 0 0.37,0.89a3.3,3.3 0 0 0 0.26,0.37l0.1,0.12l0,0l0,0l0.05,0.06l0,0l0,0l0.31,0.39c0.09,0.12 0.16,0.23 0.24,0.35a2.45,2.45 0 0 1 0.16,0.33a1.37,1.37 0 0 1 0.09,0.4a1.47,1.47 0 0 1 0,0.42a1.76,1.76 0 0 1 0,0.31a0.34,0.34 0 0 0 0.11,0.28a0.31,0.31 0 0 0 0.19,0.06a0.22,0.22 0 0 0 0.11,0a1.24,1.24 0 0 0 0.3,-0.16a1.87,1.87 0 0 0 0.47,-0.42a2,2 0 0 0 0.37,-0.7a2.38,2.38 0 0 0 0.09,-0.93a3.16,3.16 0 0 0 -0.27,-0.91z" class="cls-1"/>
 </g>
</svg>