<svg width="120" height="120" viewBox="0 0 120 120" fill="none" xmlns="http://www.w3.org/2000/svg">
<rect width="120" height="120" rx="5" fill="#7E2300"/>
<path d="M16 59.5247V83.9183H27.7333V78.0517C27.8358 74.9724 29.1049 72.0471 31.2835 69.8685C33.4621 67.6899 36.3874 66.4208 39.4667 66.3183C42.546 66.4208 45.4712 67.6899 47.6498 69.8685C49.8284 72.0471 51.0975 74.9724 51.2 78.0517V83.9183H68.8V78.0517C68.9025 74.9724 70.1716 72.0471 72.3502 69.8685C74.5288 67.6899 77.454 66.4208 80.5333 66.3183C83.6126 66.4208 86.5379 67.6899 88.7165 69.8685C90.8951 72.0471 92.1642 74.9724 92.2667 78.0517V83.9183H104V59.5247C98.975 52.5528 92.3652 46.8747 84.7152 42.9585C77.0652 39.0423 68.5941 37 60 37C51.4059 37 42.9348 39.0423 35.2848 42.9585C27.6348 46.8747 21.025 52.5528 16 59.5247H16ZM71.7333 41.2911C74.7487 42.0029 77.6939 42.9847 80.5333 44.2245V60.4517H71.7333V41.2911ZM68.8 40.7045V60.4517H60V39.9535C62.9509 39.9535 65.896 40.2058 68.8 40.7045ZM36.5333 45.6501C39.3493 44.1951 42.2944 43.0042 45.3333 42.0949V60.4517H36.5333V45.6501ZM48.2667 60.4517V41.2677C51.1579 40.593 54.1023 40.171 57.0667 40.0063V60.4517H48.2667ZM33.6 47.2165V60.4517H18.9333C22.9222 55.1347 27.9027 50.6402 33.6 47.2165V47.2165ZM83.4667 60.4517V45.785L83.1557 45.4741C90.2062 49.011 96.3379 54.1385 101.067 60.4517H83.4667Z" fill="white"/>
</svg>
