<?xml version="1.0" encoding="utf-8"?>
<!-- Generator: Adobe Illustrator 24.3.0, SVG Export Plug-In . SVG Version: 6.00 Build 0)  -->
<svg version="1.1" id="Layer_1" xmlns="http://www.w3.org/2000/svg" xmlns:xlink="http://www.w3.org/1999/xlink" x="0px" y="0px"
	 viewBox="0 0 1080 1080" style="enable-background:new 0 0 1080 1080;" xml:space="preserve">
<style type="text/css">
	.st0{fill:#FFFF00;}
	.st1{fill:#FFFFFF;}
	.st2{fill:#242021;}
	.st3{opacity:0.5;fill:#FF0049;}
	.st4{fill:none;stroke:#00E1FF;stroke-width:13;stroke-linecap:round;stroke-linejoin:round;}
	.st5{fill:#5A5A5C;}
</style>
<circle class="st0" cx="540" cy="540" r="540"/>
<path class="st2" d="M419.7,314l1.8,3.3c0.4,0,0.8,0,1.2,0.1c3,0.6,4.9,3.5,4.3,6.4c-0.6,3-3.5,4.9-6.4,4.3c-3-0.6-4.9-3.5-4.3-6.4
	c0.2-0.8,0.5-1.5,0.9-2.2v0l-2-3.6c-7.9,3.1-16.5,4.8-25.6,4.8c-38.8,0-70.3-31.5-70.3-70.3S351,180,389.8,180
	c38.8,0,70.3,31.5,70.3,70.3C460.1,278.5,443.6,302.8,419.7,314z"/>
<path class="st2" d="M898.4,781.4c-16,0-30.6,0.8-42.2,2.1v-8.3c0-2.2-0.9-4.3-2.4-5.8l-10-10c-1.5-1.5-3.6-2.4-5.8-2.4h-18.4
	c-2.4,0-4.6-1-6.2-2.8l-1.6-1.9l-1.5-4.9c-0.6-2.5-9.6-37.7-56.8-61.5l-80.6-91.9c1.9-1.9,3.3-3.9,4.3-5.8
	c5.8-10.8,3.4-25.9-6.3-40.6c14.5-15.8,22-31,17-36.4l-18.2-19.7c-1.7-1.8-4.6-2-6.4-0.3l-44.6,41.1L586.7,496
	c-2.8-3.2-7.6-3.5-10.8-0.8l-63.4,54.5L501,536.6l27-23.8l-44-50.1l-27,23.7l-5.1-5.8c-2.8-3.2-7.7-3.5-10.9-0.7s-3.5,7.7-0.7,10.9
	l65.5,74.7c2.8,3.2,7.6,3.5,10.8,0.8l63.4-54.5l27,30.8l-10.2,9.4c-1.8,1.7-2,4.6-0.3,6.4l18.2,19.7c3.2,3.5,11.1,2.1,20.9-3
	l19.7,22.5c-5.2,1.5-11.8,2.2-19.6,2.1h0l-0.1,2.4l-0.1,2.4c1.1,0,2.1,0,3.1,0c8.4,0,15-1.1,20.3-2.8l15.6,17.8
	c7.1,21.6,16.2,40.9,51.8,59.1l73.1,83.2c1.3,1.5,2,3.4,2,5.4l0,7.9c0,2.1,0.9,4.2,2.3,5.7l27,27.6c4.1,4.7,32.7,8.3,67.3,8.3
	c37.5,0,67.8-4.2,67.8-9.5v-16.5C966.2,785.7,935.8,781.4,898.4,781.4z M667.3,551c7.2,11.3,9.7,22.9,6.9,31.5
	c0-7.7-4.2-16.7-12.2-26.4C663.9,554.4,665.6,552.7,667.3,551z M668.3,588.4c0,0.1-0.1,0.2-0.1,0.3L649,566.9
	c3.1-2.3,6.3-4.8,9.5-7.6C667.9,570.8,671.5,581.3,668.3,588.4z M683.3,629.4l33.9,38.6C697.7,655.9,689.1,643.4,683.3,629.4z
	 M762.9,696.7c26.6,16.9,37.2,37.3,40.9,46.6L762.9,696.7z"/>
<path class="st2" d="M566.4,557.2c-12.4,10.8-31.2,9.4-42-3L418.4,432l-4.3,119.5v0l63.1,87.3c2.3,3.2,4.1,6.8,5.3,10.5l53.7,172.6
	c6.4,20.7-5.1,42.6-25.8,49c-20.7,6.4-42.6-5.1-49-25.8l-49.3-158.5c-1.6-5-3.9-9.7-7-14l-61.7-85.4l-3.8,107
	c-0.2,6.3-3,12.1-7.8,16.3L200.6,824.4c-16.3,14.2-41.1,12.4-55.3-3.9c-14.2-16.3-12.4-41.1,3.9-55.2l107.9-93.6
	c3.2-2.8,5.1-6.7,5.4-10.9l15.3-241.4l-23.2,17.5c-2.4,1.8-3.8,4.5-3.9,7.5l-3,84.2c-0.6,16.4-14.4,29.3-30.8,28.7
	c-16.4-0.6-29.3-14.4-28.7-30.8L192,420c0.2-6.8,3.5-13.1,9-17.2l71.7-54.1l25.3-19c1.1-0.8,2.2-1.5,3.3-2.2c5-2.8,10.5-4,15.9-3.8
	l0.4,0l75.9,3.5c5,0.1,10,1.5,14.4,4.1h0c2.7,1.6,5.2,3.6,7.4,6.1l6.3,7.3l147.8,170.4C580.1,527.6,578.8,546.4,566.4,557.2z"/>
<path class="st5" d="M385.2,241.6c3.5,4.1,5.6,9.3,5.7,15c0.2,13.2-10.7,24.2-23.9,24.2c-13.2,0-23.9-10.7-23.9-23.9
	c0-9.8,5.9-18.3,14.4-21.9l12.9-52c0.8-3,3.5-5.2,6.6-5.2l20.5-0.1c1.6,0,2.8,1.5,2.4,3.1L385.2,241.6z"/>
</svg>
