<svg id="Layer_1" data-name="Layer 1" xmlns="http://www.w3.org/2000/svg" viewBox="0 0 43.07 43.07"><defs><style>.cls-1{fill:#0c61fa;}.cls-2{fill:#fff;}</style></defs><title>іконки 3 копія</title><circle class="cls-1" cx="21.54" cy="21.54" r="16"/><path class="cls-2" d="M21.54,6.54a15,15,0,1,1-15,15,15,15,0,0,1,15-15m0-2a17,17,0,1,0,17,17,17,17,0,0,0-17-17Z"/><path class="cls-2" d="M29.91,14.83v0a.09.09,0,0,0,0-.05v0a.43.43,0,0,0,0-.05v0a.43.43,0,0,1,0-.05v0s0,0,0-.05h0l0,0v0l0,0v0l0,0,0,0,0,0,0,0,0,0,0,0,0,0,0,0,0,0h0l0,0h-.17a23.84,23.84,0,0,1-7.37-2.29h0l-.05,0h0l0,0h-.43l0,0h0l0,0h0a24,24,0,0,1-7.38,2.29h-.21l0,0,0,0,0,0h0l0,0,0,0,0,0,0,0,0,0,0,0,0,0,0,0,0,0v0l0,0v0l0,0v0s0,0,0,0v0a.06.06,0,0,0,0,0v5.49A11.83,11.83,0,0,0,21.3,31.5h.24l.15,0h.08a11.83,11.83,0,0,0,8.14-11.25V14.83Z"/><path class="cls-1" d="M26,23.19a6.21,6.21,0,0,0-.55-2,8,8,0,0,0-1.06-1.69,3.2,3.2,0,0,0-.31-.35L23.91,19a.93.93,0,0,0-.1-.1l0-.05-.14-.15h0l-.07-.07-.09-.1,0,0a7.91,7.91,0,0,1-.57-.68,4.12,4.12,0,0,1-.43-.67,3,3,0,0,1-.29-.81,5,5,0,0,1-.1-.92,7.14,7.14,0,0,1,0-.83c0-.16,0-.3,0-.43a.29.29,0,0,0-.1-.26.29.29,0,0,0-.27-.06,2.39,2.39,0,0,0-.43.14,4,4,0,0,0-.89.52,4.17,4.17,0,0,0-.95,1,4.46,4.46,0,0,0-.66,1.64,5.17,5.17,0,0,0,0,2.07,6.28,6.28,0,0,0,.8,1.95,6.59,6.59,0,0,0,.58.81l.22.26.06.07.11.13.08.09h0c.3.35.51.61.69.85a8.29,8.29,0,0,1,.51.75,4.24,4.24,0,0,1,.37.74,3.45,3.45,0,0,1,.2.87,5.75,5.75,0,0,1,0,.93c0,.31-.08.61-.12.82s-.06.28-.08.39a.29.29,0,0,0,.29.37h.06a2.62,2.62,0,0,0,.4-.11,4.26,4.26,0,0,0,.92-.43,4.22,4.22,0,0,0,1-.92,4.59,4.59,0,0,0,.81-1.55A5.05,5.05,0,0,0,26,23.19Z"/><path class="cls-1" d="M20.13,25a3.71,3.71,0,0,0-.49-.77l-.13-.16L19.44,24s0,0-.05-.05l0,0-.06-.06v0l0,0,0-.05h0L19,23.47a2.41,2.41,0,0,1-.2-.31,1.78,1.78,0,0,1-.13-.37,2.48,2.48,0,0,1,0-.41,1.67,1.67,0,0,1,0-.33.31.31,0,0,0-.13-.27.32.32,0,0,0-.3,0,2.14,2.14,0,0,0-.32.2,1.88,1.88,0,0,0-.43.46,2.06,2.06,0,0,0-.31.75,2.54,2.54,0,0,0,0,.95,2.85,2.85,0,0,0,.37.89,3.3,3.3,0,0,0,.26.37l.1.12h0l0,0,.05.06,0,0h0l.31.39c.09.12.16.23.24.35a2.45,2.45,0,0,1,.16.33,1.37,1.37,0,0,1,.09.4,1.47,1.47,0,0,1,0,.42,1.76,1.76,0,0,1,0,.31.34.34,0,0,0,.11.28.31.31,0,0,0,.19.06.22.22,0,0,0,.11,0,1.24,1.24,0,0,0,.3-.16,1.87,1.87,0,0,0,.47-.42,2,2,0,0,0,.37-.7,2.38,2.38,0,0,0,.09-.93A3.16,3.16,0,0,0,20.13,25Z"/></svg>