<?xml version="1.0" encoding="utf-8"?>
<!-- Generator: Adobe Illustrator 24.0.1, SVG Export Plug-In . SVG Version: 6.00 Build 0)  -->
<svg version="1.1" id="Layer_1" xmlns="http://www.w3.org/2000/svg" xmlns:xlink="http://www.w3.org/1999/xlink" x="0px" y="0px"
	 viewBox="0 0 43.1 43.1" style="enable-background:new 0 0 43.1 43.1;" xml:space="preserve">
<style type="text/css">
	.st0{fill:#0C61FA;}
	.st1{fill:#FFFFFF;}
	.st2{enable-background:new    ;}
</style>
<title>іконки 3 копія</title>
<circle class="st0" cx="21.5" cy="21.5" r="16"/>
<path class="st1" d="M21.5,6.5c8.3,0,15,6.7,15,15s-6.7,15-15,15s-15-6.7-15-15C6.5,13.3,13.3,6.5,21.5,6.5 M21.5,4.5
	c-9.4,0-17,7.6-17,17s7.6,17,17,17s17-7.6,17-17S30.9,4.5,21.5,4.5z"/>
<g class="st2">
	<path class="st1" d="M18.3,27.3v-9.3h-3.8v9.3h-2.2V16h8.2v11.3H18.3z"/>
	<path class="st1" d="M29.1,27.3v-4.7h-3.8v4.7h-2.2V16h2.2v4.6h3.8V16h2.2v11.3H29.1z"/>
</g>
</svg>
