<svg id="Layer_1" data-name="Layer 1" xmlns="http://www.w3.org/2000/svg" viewBox="0 0 43.07 43.07"><defs><style>.cls-1{fill:#efc803;}.cls-2{fill:#fff;}</style></defs><title>іконки 5</title><circle class="cls-1" cx="21.54" cy="21.54" r="16"/><path class="cls-2" d="M21.54,6.54a15,15,0,1,1-15,15,15,15,0,0,1,15-15m0-2a17,17,0,1,0,17,17,17,17,0,0,0-17-17Z"/><path class="cls-2" d="M27.69,19.05a.46.46,0,0,0-.41-.22H22V11.65a.49.49,0,0,0-.49-.48.47.47,0,0,0-.42.26L15.37,22.92a.47.47,0,0,0,.21.64.54.54,0,0,0,.21.05h5.27v7.18a.49.49,0,0,0,.37.47h.11A.47.47,0,0,0,22,31l5.75-11.49a.52.52,0,0,0,0-.47"/></svg>